<svg width="16" height="16" viewBox="0 0 16 16" fill="none" xmlns="http://www.w3.org/2000/svg">
<path d="M10.5118 3.74955L10.5118 3.74957L10.5155 3.75318C10.5773 3.8137 10.5773 3.92096 10.5172 3.98111L6.65049 7.84778L6.29718 8.20109L6.65024 8.55464L10.5116 12.4213L10.5118 12.4215C10.5779 12.4876 10.5779 12.5924 10.5118 12.6584C10.4457 12.7245 10.341 12.7245 10.2749 12.6584L5.84293 8.22644C5.83019 8.21371 5.83019 8.19429 5.84293 8.18155L5.48937 7.828L5.84293 8.18155L10.2749 3.74955L9.92137 3.396L10.2749 3.74955C10.341 3.68348 10.4457 3.68348 10.5118 3.74955Z" fill="#C0C3CF" stroke="#C0C3CF"/>
</svg>
