<svg width="12" height="16" viewBox="0 0 12 16" fill="none" xmlns="http://www.w3.org/2000/svg">
<path fill-rule="evenodd" clip-rule="evenodd" d="M5.99999 0C2.90399 0 0.399994 2.504 0.399994 5.6C0.399994 8.936 3.93599 13.536 5.39199 15.288C5.71199 15.672 6.29599 15.672 6.61599 15.288C8.06399 13.536 11.6 8.936 11.6 5.6C11.6 2.504 9.09599 0 5.99999 0ZM5.99999 7.6C4.89599 7.6 3.99999 6.704 3.99999 5.6C3.99999 4.496 4.89599 3.6 5.99999 3.6C7.10399 3.6 7.99999 4.496 7.99999 5.6C7.99999 6.704 7.10399 7.6 5.99999 7.6Z" fill="#303135"/>
</svg>
