<svg width="24" height="24" viewBox="0 0 24 24" fill="none" xmlns="http://www.w3.org/2000/svg">
<path fill-rule="evenodd" clip-rule="evenodd" d="M5.6 16.8H18.4C18.84 16.8 19.2 16.44 19.2 16C19.2 15.56 18.84 15.2 18.4 15.2H5.6C5.16 15.2 4.8 15.56 4.8 16C4.8 16.44 5.16 16.8 5.6 16.8ZM5.6 12.8H18.4C18.84 12.8 19.2 12.44 19.2 12C19.2 11.56 18.84 11.2 18.4 11.2H5.6C5.16 11.2 4.8 11.56 4.8 12C4.8 12.44 5.16 12.8 5.6 12.8ZM4.8 7.99995C4.8 8.43995 5.16 8.79995 5.6 8.79995H18.4C18.84 8.79995 19.2 8.43995 19.2 7.99995C19.2 7.55995 18.84 7.19995 18.4 7.19995H5.6C5.16 7.19995 4.8 7.55995 4.8 7.99995Z" fill="#71747D"/>
</svg>
